<svg width="81" height="13" viewBox="0 0 81 13" fill="none" xmlns="http://www.w3.org/2000/svg">
<g clip-path="url(#clip0_747_143)">
<path d="M75.7091 1.30957C75.4865 1.90772 75.1623 2.80985 74.7366 4.01595C74.1852 4.01595 73.3579 4.01595 72.2548 4.01595C72.2548 5.41816 72.2548 7.52639 72.2548 10.3406C72.2548 10.8407 72.0806 11.2673 71.7323 11.6203C71.3839 11.9733 70.9631 12.1498 70.4696 12.1498C70.2277 12.1498 69.8552 12.1498 69.3521 12.1498C69.3521 10.3455 69.3521 7.63426 69.3521 4.01595C68.8005 4.01595 67.9732 4.01595 66.8702 4.01595C66.6574 3.41779 66.3332 2.51568 65.8978 1.30957C67.533 1.30957 69.1682 1.30957 70.8034 1.30957C72.4387 1.30957 74.0738 1.30957 75.7091 1.30957Z" fill="#F0861A"/>
<path d="M76.6815 1.30957C77.62 1.30957 79.0328 1.30957 80.9195 1.30957C80.9195 3.71197 80.9195 7.32538 80.9195 12.1498C80.2713 12.1498 79.3037 12.1498 78.0168 12.1498C78.0168 10.3946 78.0168 7.75682 78.0168 4.23658C78.0168 3.53057 77.9007 2.92752 77.6684 2.42742C77.4363 1.92733 77.1072 1.55471 76.6815 1.30957Z" fill="#F0861A"/>
<path d="M45.2041 3.9917C46.1454 3.9917 46.8936 4.27787 47.449 4.85021C48.0138 5.42256 48.2961 6.28584 48.2961 7.44006V11.8757H45.6135V7.88362C45.6135 7.33989 45.51 6.93925 45.3029 6.6817C45.1053 6.42415 44.8228 6.29537 44.4558 6.29537C44.0511 6.29537 43.7263 6.43845 43.4815 6.72462C43.2368 7.01079 43.1145 7.44482 43.1145 8.0267V11.8757H40.4318V7.88362C40.4318 6.82479 40.046 6.29537 39.2741 6.29537C38.8599 6.29537 38.5305 6.43845 38.2858 6.72462C38.0411 7.01079 37.9187 7.44482 37.9187 8.0267V9.96783C37.9187 9.96783 37.8855 11.8757 35.2361 11.8757V4.12048H37.7916V4.93607C38.074 4.62127 38.4082 4.38757 38.7941 4.23495C39.1894 4.07279 39.6177 3.9917 40.0789 3.9917C40.6154 3.9917 41.0955 4.09187 41.519 4.29217C41.9426 4.4925 42.2861 4.79774 42.5497 5.20792C42.8509 4.81682 43.2321 4.51635 43.6933 4.30649C44.1546 4.09663 44.6581 3.9917 45.2041 3.9917Z" fill="white"/>
<path d="M52.686 3.9917C53.9567 3.9917 54.9261 4.28741 55.5945 4.87883C56.2628 5.4607 56.5969 6.35738 56.5969 7.56882V11.8757H54.0978V10.8741C53.712 11.6277 52.9589 12.0045 51.8389 12.0045C51.2459 12.0045 50.7328 11.8995 50.2999 11.6897C49.8669 11.4798 49.5375 11.1984 49.3116 10.8455C49.0951 10.483 48.9868 10.0728 48.9868 9.61495C48.9868 8.88044 49.2644 8.31287 49.8198 7.91223C50.3752 7.50205 51.2318 7.29696 52.3895 7.29696H53.9143C53.8672 6.47661 53.3261 6.06644 52.2907 6.06644C51.9235 6.06644 51.5518 6.12843 51.1752 6.25245C50.7988 6.36691 50.4787 6.52907 50.2151 6.73893L49.3116 4.89314C49.7351 4.60697 50.2481 4.38757 50.8505 4.23495C51.4624 4.07279 52.0742 3.9917 52.686 3.9917ZM52.5872 10.2874C52.8978 10.2874 53.1707 10.2111 53.4061 10.0585C53.6414 9.90588 53.8108 9.68172 53.9143 9.386V8.71351H52.7566C51.9754 8.71351 51.5847 8.97583 51.5847 9.50048C51.5847 9.73895 51.6742 9.92973 51.853 10.0728C52.0318 10.2159 52.2766 10.2874 52.5872 10.2874Z" fill="white"/>
<path d="M62.7094 3.99183C63.6601 3.99183 64.4226 4.27799 64.9967 4.85033C65.5802 5.42268 65.8721 6.28596 65.8721 7.44018V11.8758H63.1894V7.88374C63.1894 6.82491 62.7706 6.2955 61.9328 6.2955C61.4717 6.2955 61.0998 6.44812 60.8175 6.75337C60.5446 7.05862 60.408 7.51649 60.408 8.12698V11.8758H57.7255V1.30957H60.408V4.83603C60.6998 4.5594 61.0434 4.34954 61.4387 4.20645C61.834 4.06337 62.2576 3.99183 62.7094 3.99183Z" fill="white"/>
<path d="M29.2197 0.799805C30.8118 0.799805 32.0599 1.21655 32.964 2.05003C33.8682 2.87371 34.3203 4.01118 34.3203 5.46242C34.3203 5.90368 34.3203 6.56557 34.3203 7.44808C34.3203 8.88952 33.8682 10.027 32.964 10.8605C32.0501 11.6842 30.802 12.096 29.2197 12.096C27.6375 12.096 26.3943 11.6842 25.4901 10.8605C25.0244 10.4311 24.6786 9.92103 24.4527 9.33031L26.433 7.33819L24.2535 5.04696C24.2535 4.13275 24.586 2.87371 25.4901 2.05003C26.3943 1.21655 27.6375 0.799805 29.2197 0.799805ZM31.2541 7.52163C31.2541 7.05095 31.2541 6.34003 31.2541 5.38888C31.2541 4.81034 31.0772 4.35437 30.7233 4.02098C30.3597 3.68759 29.8586 3.52089 29.2197 3.52089C28.5908 3.52089 28.0944 3.68759 27.7308 4.02098C27.3673 4.35437 27.1854 4.81034 27.1854 5.38888C27.1854 5.85956 27.1854 6.57047 27.1854 7.52163C27.1854 8.10017 27.3673 8.55613 27.7308 8.88952C28.0944 9.22291 28.5908 9.38962 29.2197 9.38962C29.8586 9.38962 30.3597 9.22291 30.7233 8.88952C31.0772 8.55613 31.2541 8.10017 31.2541 7.52163Z" fill="white"/>
<path fill-rule="evenodd" clip-rule="evenodd" d="M25.8375 7.33019L20.9652 12.157L10.7893 1.93555H20.5337L25.8375 7.33019Z" fill="#F0861A"/>
<path fill-rule="evenodd" clip-rule="evenodd" d="M10.2669 2.50342L0.567871 12.1561H10.2669L15.1425 7.326L10.2669 2.50342Z" fill="white"/>
</g>
<defs>
<clipPath id="clip0_747_143">
<rect width="80.9195" height="11.4003" fill="white" transform="translate(0 0.799805)"/>
</clipPath>
</defs>
</svg>
