<svg width="1440" height="28" viewBox="0 0 1440 28" fill="none" xmlns="http://www.w3.org/2000/svg">
<path d="M1074.41 14.2516C1068.94 10.7786 1064.72 6.38475 1061.39 0.748817C1058.07 6.39093 1053.84 10.7786 1048.39 14.2454C1053.82 17.6752 1058.05 22.0504 1061.37 27.6987C1064.72 22.137 1068.89 17.6875 1074.4 14.2454L1074.41 14.2516Z" fill="#5092C4"/>
<path d="M411.33 14.2516C405.862 10.7786 401.638 6.38475 398.314 0.748817C394.989 6.39093 390.765 10.7786 385.309 14.2454C390.742 17.6752 394.971 22.0504 398.29 27.6987C401.644 22.137 405.808 17.6875 411.324 14.2454L411.33 14.2516Z" fill="#5092C4"/>
<path d="M742.869 14.2516C737.4 10.7786 733.176 6.38475 729.852 0.748817C726.528 6.39093 722.304 10.7786 716.847 14.2454C722.28 17.6752 726.51 22.0504 729.828 27.6987C733.182 22.137 737.346 17.6875 742.863 14.2454L742.869 14.2516Z" fill="#5092C4"/>
<path d="M79.7915 14.2516C74.3226 10.7786 70.0988 6.38475 66.7746 0.748817C63.4504 6.39093 59.2265 10.7786 53.7696 14.2454C59.2027 17.6752 63.4325 22.0504 66.7508 27.6987C70.1048 22.137 74.269 17.6875 79.7855 14.2454L79.7915 14.2516Z" fill="#5092C4"/>
<path d="M908.638 14.2516C903.17 10.7786 898.946 6.38475 895.622 0.748817C892.297 6.39093 888.074 10.7786 882.617 14.2454C888.05 17.6752 892.279 22.0504 895.598 27.6987C898.952 22.137 903.116 17.6875 908.633 14.2454L908.638 14.2516Z" fill="#DEE2E9"/>
<path d="M245.561 14.2516C240.092 10.7786 235.868 6.38475 232.544 0.748817C229.22 6.39093 224.996 10.7786 219.539 14.2454C224.972 17.6752 229.202 22.0504 232.52 27.6987C235.874 22.137 240.039 17.6875 245.555 14.2454L245.561 14.2516Z" fill="#DEE2E9"/>
<path d="M577.099 14.2516C571.631 10.7786 567.407 6.38475 564.083 0.748817C560.758 6.39093 556.535 10.7786 551.078 14.2454C556.511 17.6752 560.74 22.0504 564.059 27.6987C567.413 22.137 571.577 17.6875 577.094 14.2454L577.099 14.2516Z" fill="#DEE2E9"/>
<path d="M1385.71 14.2516C1380.24 10.7786 1376.01 6.38475 1372.69 0.748817C1369.37 6.39093 1365.14 10.7786 1359.69 14.2454C1365.12 17.6752 1369.35 22.0504 1372.67 27.6987C1376.02 22.137 1380.18 17.6875 1385.7 14.2454L1385.71 14.2516Z" fill="#5092C4"/>
<path d="M1219.94 14.2516C1214.47 10.7786 1210.25 6.38475 1206.92 0.748817C1203.6 6.39093 1199.37 10.7786 1193.92 14.2454C1199.35 17.6752 1203.58 22.0504 1206.9 27.6987C1210.25 22.137 1214.42 17.6875 1219.93 14.2454L1219.94 14.2516Z" fill="#DEE2E9"/>
</svg>
